<mxfile host="65bd71144e">
    <diagram id="R2lEEEUBdFMjLlhIrx00" name="Page-1">
        <mxGraphModel dx="3669" dy="1703" grid="1" gridSize="10" guides="1" tooltips="1" connect="1" arrows="1" fold="1" page="1" pageScale="1" pageWidth="850" pageHeight="1100" math="0" shadow="0" extFonts="Permanent Marker^https://fonts.googleapis.com/css?family=Permanent+Marker">
            <root>
                <mxCell id="0"/>
                <mxCell id="1" parent="0"/>
                <mxCell id="mSTFbyO6T9UbL1waG1NC-82" value="" style="rounded=0;whiteSpace=wrap;html=1;labelBackgroundColor=none;labelBorderColor=none;fontSize=11;strokeWidth=3;align=center;verticalAlign=middle;fillColor=none;movable=0;resizable=0;rotatable=0;deletable=0;editable=0;connectable=0;" parent="1" vertex="1">
                    <mxGeometry x="75" y="1000" width="610" height="410" as="geometry"/>
                </mxCell>
                <mxCell id="mSTFbyO6T9UbL1waG1NC-91" style="edgeStyle=orthogonalEdgeStyle;shape=link;rounded=0;orthogonalLoop=1;jettySize=auto;html=1;fontSize=17;endArrow=none;endFill=0;width=-8.387096774193548;entryX=0.495;entryY=0.969;entryDx=0;entryDy=0;entryPerimeter=0;" parent="1" source="mSTFbyO6T9UbL1waG1NC-58" target="mSTFbyO6T9UbL1waG1NC-90" edge="1">
                    <mxGeometry relative="1" as="geometry"/>
                </mxCell>
                <mxCell id="mSTFbyO6T9UbL1waG1NC-103" value="1:n" style="edgeLabel;html=1;align=center;verticalAlign=middle;resizable=0;points=[];fontSize=10;" parent="mSTFbyO6T9UbL1waG1NC-91" vertex="1" connectable="0">
                    <mxGeometry x="0.7168" y="-3" relative="1" as="geometry">
                        <mxPoint x="-20" y="-19" as="offset"/>
                    </mxGeometry>
                </mxCell>
                <mxCell id="mSTFbyO6T9UbL1waG1NC-58" value="Actores" style="swimlane;childLayout=stackLayout;horizontal=1;startSize=30;horizontalStack=0;rounded=1;fontSize=14;fontStyle=0;strokeWidth=2;resizeParent=0;resizeLast=1;shadow=0;dashed=0;align=center;fillColor=#dae8fc;strokeColor=#6c8ebf;" parent="1" vertex="1" collapsed="1">
                    <mxGeometry x="205" y="1350" width="80" height="30" as="geometry">
                        <mxRectangle x="70" y="960" width="160" height="120" as="alternateBounds"/>
                    </mxGeometry>
                </mxCell>
                <mxCell id="mSTFbyO6T9UbL1waG1NC-59" value="- id&#10;+ nombre" style="align=left;strokeColor=none;fillColor=none;spacingLeft=4;fontSize=12;verticalAlign=top;resizable=0;rotatable=0;part=1;" parent="mSTFbyO6T9UbL1waG1NC-58" vertex="1">
                    <mxGeometry y="30" width="80" as="geometry"/>
                </mxCell>
                <mxCell id="mSTFbyO6T9UbL1waG1NC-88" style="edgeStyle=orthogonalEdgeStyle;rounded=0;orthogonalLoop=1;jettySize=auto;html=1;fontSize=17;endArrow=none;endFill=0;shape=link;width=-5.483870967741936;" parent="1" source="mSTFbyO6T9UbL1waG1NC-60" target="mSTFbyO6T9UbL1waG1NC-84" edge="1">
                    <mxGeometry relative="1" as="geometry">
                        <Array as="points">
                            <mxPoint x="405" y="1330"/>
                            <mxPoint x="405" y="1330"/>
                        </Array>
                    </mxGeometry>
                </mxCell>
                <mxCell id="mSTFbyO6T9UbL1waG1NC-105" value="1:n" style="edgeLabel;html=1;align=center;verticalAlign=middle;resizable=0;points=[];fontSize=10;" parent="mSTFbyO6T9UbL1waG1NC-88" vertex="1" connectable="0">
                    <mxGeometry x="0.7845" y="-3" relative="1" as="geometry">
                        <mxPoint x="12" y="5" as="offset"/>
                    </mxGeometry>
                </mxCell>
                <mxCell id="mSTFbyO6T9UbL1waG1NC-60" value="Director" style="swimlane;childLayout=stackLayout;horizontal=1;startSize=30;horizontalStack=0;rounded=1;fontSize=14;fontStyle=0;strokeWidth=2;resizeParent=0;resizeLast=1;shadow=0;dashed=0;align=center;fillColor=#dae8fc;strokeColor=#6c8ebf;" parent="1" vertex="1" collapsed="1">
                    <mxGeometry x="365" y="1360" width="80" height="30" as="geometry">
                        <mxRectangle x="130" y="1300" width="160" height="120" as="alternateBounds"/>
                    </mxGeometry>
                </mxCell>
                <mxCell id="mSTFbyO6T9UbL1waG1NC-61" value="- id&#10;+ nombre" style="align=left;strokeColor=none;fillColor=none;spacingLeft=4;fontSize=12;verticalAlign=top;resizable=0;rotatable=0;part=1;" parent="mSTFbyO6T9UbL1waG1NC-60" vertex="1">
                    <mxGeometry y="30" width="80" as="geometry"/>
                </mxCell>
                <mxCell id="mSTFbyO6T9UbL1waG1NC-62" value="Películas" style="swimlane;childLayout=stackLayout;horizontal=1;startSize=30;horizontalStack=0;rounded=1;fontSize=14;fontStyle=0;strokeWidth=2;resizeParent=0;resizeLast=1;shadow=0;dashed=0;align=center;fillColor=#dae8fc;strokeColor=#6c8ebf;" parent="1" vertex="1" collapsed="1">
                    <mxGeometry x="365" y="1155" width="80" height="30" as="geometry">
                        <mxRectangle x="400" y="1015" width="160" height="120" as="alternateBounds"/>
                    </mxGeometry>
                </mxCell>
                <mxCell id="mSTFbyO6T9UbL1waG1NC-63" value="- id&#10;+ nombre&#10;+ idioma&#10;+ reseña&#10;+ duración&#10;+ fecha estreno&#10;+ fecha adquisión" style="align=left;strokeColor=none;fillColor=none;spacingLeft=4;fontSize=12;verticalAlign=top;resizable=0;rotatable=0;part=1;" parent="mSTFbyO6T9UbL1waG1NC-62" vertex="1">
                    <mxGeometry y="30" width="80" as="geometry"/>
                </mxCell>
                <mxCell id="mSTFbyO6T9UbL1waG1NC-64" value="Genero" style="swimlane;childLayout=stackLayout;horizontal=1;startSize=30;horizontalStack=0;rounded=1;fontSize=14;fontStyle=0;strokeWidth=2;resizeParent=0;resizeLast=1;shadow=0;dashed=0;align=center;fillColor=#dae8fc;strokeColor=#6c8ebf;" parent="1" vertex="1" collapsed="1">
                    <mxGeometry x="110" y="1060" width="80" height="30" as="geometry">
                        <mxRectangle x="110" y="1060" width="160" height="120" as="alternateBounds"/>
                    </mxGeometry>
                </mxCell>
                <mxCell id="mSTFbyO6T9UbL1waG1NC-65" value="- id&#10;+ nombre" style="align=left;strokeColor=none;fillColor=none;spacingLeft=4;fontSize=12;verticalAlign=top;resizable=0;rotatable=0;part=1;" parent="mSTFbyO6T9UbL1waG1NC-64" vertex="1">
                    <mxGeometry y="30" width="80" as="geometry"/>
                </mxCell>
                <mxCell id="mSTFbyO6T9UbL1waG1NC-94" style="edgeStyle=orthogonalEdgeStyle;rounded=0;orthogonalLoop=1;jettySize=auto;html=1;fontSize=17;endArrow=none;endFill=0;" parent="1" source="mSTFbyO6T9UbL1waG1NC-66" target="mSTFbyO6T9UbL1waG1NC-93" edge="1">
                    <mxGeometry relative="1" as="geometry"/>
                </mxCell>
                <mxCell id="mSTFbyO6T9UbL1waG1NC-66" value="Nivel Público" style="swimlane;childLayout=stackLayout;horizontal=1;startSize=30;horizontalStack=0;rounded=1;fontSize=11;fontStyle=0;strokeWidth=2;resizeParent=0;resizeLast=1;shadow=0;dashed=0;align=center;fillColor=#dae8fc;strokeColor=#6c8ebf;" parent="1" vertex="1" collapsed="1">
                    <mxGeometry x="570" y="1360" width="80" height="30" as="geometry">
                        <mxRectangle x="570" y="1360" width="160" height="120" as="alternateBounds"/>
                    </mxGeometry>
                </mxCell>
                <mxCell id="mSTFbyO6T9UbL1waG1NC-67" value="- id&#10;+ nombre" style="align=left;strokeColor=none;fillColor=none;spacingLeft=4;fontSize=12;verticalAlign=top;resizable=0;rotatable=0;part=1;" parent="mSTFbyO6T9UbL1waG1NC-66" vertex="1">
                    <mxGeometry y="30" width="80" as="geometry"/>
                </mxCell>
                <mxCell id="mSTFbyO6T9UbL1waG1NC-70" value="Producto" style="swimlane;childLayout=stackLayout;horizontal=1;startSize=30;horizontalStack=0;rounded=1;fontSize=14;fontStyle=0;strokeWidth=2;resizeParent=0;resizeLast=1;shadow=0;dashed=0;align=center;fillColor=#dae8fc;strokeColor=#6c8ebf;" parent="1" vertex="1" collapsed="1">
                    <mxGeometry x="970" y="450" width="80" height="30" as="geometry">
                        <mxRectangle x="290" y="390" width="160" height="120" as="alternateBounds"/>
                    </mxGeometry>
                </mxCell>
                <mxCell id="mSTFbyO6T9UbL1waG1NC-71" value="- id&#10;+ nro_butaca&#10;+ n" style="align=left;strokeColor=none;fillColor=none;spacingLeft=4;fontSize=12;verticalAlign=top;resizable=0;rotatable=0;part=1;" parent="mSTFbyO6T9UbL1waG1NC-70" vertex="1">
                    <mxGeometry y="30" width="80" as="geometry"/>
                </mxCell>
                <mxCell id="mSTFbyO6T9UbL1waG1NC-72" value="Factura Entrada" style="swimlane;childLayout=stackLayout;horizontal=1;startSize=30;horizontalStack=0;rounded=1;fontSize=14;fontStyle=0;strokeWidth=2;resizeParent=0;resizeLast=1;shadow=0;dashed=0;align=center;fillColor=#dae8fc;strokeColor=#6c8ebf;verticalAlign=middle;" parent="1" vertex="1" collapsed="1">
                    <mxGeometry x="800" y="420" width="120" height="30" as="geometry">
                        <mxRectangle x="650" y="30" width="160" height="120" as="alternateBounds"/>
                    </mxGeometry>
                </mxCell>
                <mxCell id="mSTFbyO6T9UbL1waG1NC-73" value="- id&#10;+ nro_butaca&#10;+ n" style="align=left;strokeColor=none;fillColor=none;spacingLeft=4;fontSize=12;verticalAlign=top;resizable=0;rotatable=0;part=1;" parent="mSTFbyO6T9UbL1waG1NC-72" vertex="1">
                    <mxGeometry y="30" width="120" as="geometry"/>
                </mxCell>
                <mxCell id="mSTFbyO6T9UbL1waG1NC-74" value="Venta Producto" style="swimlane;childLayout=stackLayout;horizontal=1;startSize=30;horizontalStack=0;rounded=1;fontSize=14;fontStyle=0;strokeWidth=2;resizeParent=0;resizeLast=1;shadow=0;dashed=0;align=center;fillColor=#dae8fc;strokeColor=#6c8ebf;" parent="1" vertex="1" collapsed="1">
                    <mxGeometry x="1120" y="380" width="110" height="30" as="geometry">
                        <mxRectangle x="290" y="390" width="160" height="120" as="alternateBounds"/>
                    </mxGeometry>
                </mxCell>
                <mxCell id="mSTFbyO6T9UbL1waG1NC-75" value="- id&#10;+ nro_butaca&#10;+ n" style="align=left;strokeColor=none;fillColor=none;spacingLeft=4;fontSize=12;verticalAlign=top;resizable=0;rotatable=0;part=1;" parent="mSTFbyO6T9UbL1waG1NC-74" vertex="1">
                    <mxGeometry y="30" width="110" as="geometry"/>
                </mxCell>
                <mxCell id="mSTFbyO6T9UbL1waG1NC-76" value="Venta" style="swimlane;childLayout=stackLayout;horizontal=1;startSize=30;horizontalStack=0;rounded=1;fontSize=14;fontStyle=0;strokeWidth=2;resizeParent=0;resizeLast=1;shadow=0;dashed=0;align=center;fillColor=#dae8fc;strokeColor=#6c8ebf;" parent="1" vertex="1" collapsed="1">
                    <mxGeometry x="870" y="380" width="110" height="30" as="geometry">
                        <mxRectangle x="290" y="390" width="160" height="120" as="alternateBounds"/>
                    </mxGeometry>
                </mxCell>
                <mxCell id="mSTFbyO6T9UbL1waG1NC-77" value="- id&#10;+ nro_butaca&#10;+ n" style="align=left;strokeColor=none;fillColor=none;spacingLeft=4;fontSize=12;verticalAlign=top;resizable=0;rotatable=0;part=1;" parent="mSTFbyO6T9UbL1waG1NC-76" vertex="1">
                    <mxGeometry y="30" width="110" as="geometry"/>
                </mxCell>
                <mxCell id="mSTFbyO6T9UbL1waG1NC-83" value="&lt;b&gt;&lt;font style=&quot;font-size: 17px&quot;&gt;Películas&lt;/font&gt;&lt;/b&gt;" style="text;html=1;strokeColor=none;fillColor=none;align=center;verticalAlign=middle;whiteSpace=wrap;rounded=0;labelBackgroundColor=none;labelBorderColor=none;fontSize=11;" parent="1" vertex="1">
                    <mxGeometry x="100" y="1010" width="60" height="30" as="geometry"/>
                </mxCell>
                <mxCell id="mSTFbyO6T9UbL1waG1NC-89" style="edgeStyle=orthogonalEdgeStyle;rounded=0;orthogonalLoop=1;jettySize=auto;html=1;fontSize=17;endArrow=none;endFill=0;" parent="1" source="mSTFbyO6T9UbL1waG1NC-84" target="mSTFbyO6T9UbL1waG1NC-62" edge="1">
                    <mxGeometry relative="1" as="geometry"/>
                </mxCell>
                <mxCell id="mSTFbyO6T9UbL1waG1NC-84" value="dirige" style="shape=rhombus;perimeter=rhombusPerimeter;whiteSpace=wrap;html=1;align=center;fillColor=#f8cecc;strokeColor=#b85450;" parent="1" vertex="1">
                    <mxGeometry x="355" y="1260" width="100" height="50" as="geometry"/>
                </mxCell>
                <mxCell id="mSTFbyO6T9UbL1waG1NC-92" style="edgeStyle=orthogonalEdgeStyle;rounded=0;orthogonalLoop=1;jettySize=auto;html=1;fontSize=17;endArrow=none;endFill=0;" parent="1" source="mSTFbyO6T9UbL1waG1NC-90" target="mSTFbyO6T9UbL1waG1NC-62" edge="1">
                    <mxGeometry relative="1" as="geometry">
                        <mxPoint x="340" y="1165" as="targetPoint"/>
                    </mxGeometry>
                </mxCell>
                <mxCell id="mSTFbyO6T9UbL1waG1NC-90" value="actua" style="shape=rhombus;perimeter=rhombusPerimeter;whiteSpace=wrap;html=1;align=center;fillColor=#f8cecc;strokeColor=#b85450;" parent="1" vertex="1">
                    <mxGeometry x="195" y="1145" width="100" height="50" as="geometry"/>
                </mxCell>
                <mxCell id="mSTFbyO6T9UbL1waG1NC-101" style="edgeStyle=orthogonalEdgeStyle;rounded=0;orthogonalLoop=1;jettySize=auto;html=1;fontSize=17;endArrow=none;endFill=0;startArrow=classic;startFill=1;entryX=1;entryY=0.5;entryDx=0;entryDy=0;strokeColor=default;shape=link;" parent="1" source="mSTFbyO6T9UbL1waG1NC-93" target="mSTFbyO6T9UbL1waG1NC-62" edge="1">
                    <mxGeometry relative="1" as="geometry"/>
                </mxCell>
                <mxCell id="mSTFbyO6T9UbL1waG1NC-102" value="1:1" style="edgeLabel;html=1;align=center;verticalAlign=middle;resizable=0;points=[];fontSize=10;" parent="mSTFbyO6T9UbL1waG1NC-101" vertex="1" connectable="0">
                    <mxGeometry x="-0.8249" y="-1" relative="1" as="geometry">
                        <mxPoint x="2" y="-9" as="offset"/>
                    </mxGeometry>
                </mxCell>
                <mxCell id="mSTFbyO6T9UbL1waG1NC-93" value="tiene" style="shape=rhombus;perimeter=rhombusPerimeter;whiteSpace=wrap;html=1;align=center;fillColor=#f8cecc;strokeColor=#b85450;" parent="1" vertex="1">
                    <mxGeometry x="560" y="1145" width="100" height="50" as="geometry"/>
                </mxCell>
                <mxCell id="mSTFbyO6T9UbL1waG1NC-107" style="edgeStyle=orthogonalEdgeStyle;rounded=0;orthogonalLoop=1;jettySize=auto;html=1;fontSize=10;startArrow=none;startFill=0;endArrow=none;endFill=0;strokeColor=default;" parent="1" source="mSTFbyO6T9UbL1waG1NC-106" target="mSTFbyO6T9UbL1waG1NC-64" edge="1">
                    <mxGeometry relative="1" as="geometry"/>
                </mxCell>
                <mxCell id="mSTFbyO6T9UbL1waG1NC-108" style="edgeStyle=orthogonalEdgeStyle;shape=link;rounded=0;orthogonalLoop=1;jettySize=auto;html=1;entryX=0.5;entryY=0;entryDx=0;entryDy=0;fontSize=10;startArrow=classic;startFill=1;endArrow=none;endFill=0;strokeColor=default;" parent="1" source="mSTFbyO6T9UbL1waG1NC-106" target="mSTFbyO6T9UbL1waG1NC-62" edge="1">
                    <mxGeometry relative="1" as="geometry"/>
                </mxCell>
                <mxCell id="mSTFbyO6T9UbL1waG1NC-109" value="1:n" style="edgeLabel;html=1;align=center;verticalAlign=middle;resizable=0;points=[];fontSize=10;" parent="mSTFbyO6T9UbL1waG1NC-108" vertex="1" connectable="0">
                    <mxGeometry x="-0.8732" relative="1" as="geometry">
                        <mxPoint x="-4" y="15" as="offset"/>
                    </mxGeometry>
                </mxCell>
                <mxCell id="mSTFbyO6T9UbL1waG1NC-106" value="tiene" style="shape=rhombus;perimeter=rhombusPerimeter;whiteSpace=wrap;html=1;align=center;fillColor=#f8cecc;strokeColor=#b85450;" parent="1" vertex="1">
                    <mxGeometry x="240" y="1050" width="100" height="50" as="geometry"/>
                </mxCell>
                <mxCell id="mSTFbyO6T9UbL1waG1NC-110" value="" style="rounded=0;whiteSpace=wrap;html=1;labelBackgroundColor=none;labelBorderColor=none;fontSize=10;strokeWidth=3;fillColor=none;align=center;verticalAlign=middle;movable=0;resizable=0;rotatable=0;deletable=0;editable=0;connectable=0;" parent="1" vertex="1">
                    <mxGeometry x="75" y="510" width="605" height="490" as="geometry"/>
                </mxCell>
                <mxCell id="mSTFbyO6T9UbL1waG1NC-111" value="&lt;span style=&quot;font-size: 17px&quot;&gt;&lt;b&gt;Funcion&lt;/b&gt;&lt;/span&gt;" style="text;html=1;strokeColor=none;fillColor=none;align=center;verticalAlign=middle;whiteSpace=wrap;rounded=0;labelBackgroundColor=none;labelBorderColor=none;fontSize=11;" parent="1" vertex="1">
                    <mxGeometry x="110" y="520" width="60" height="30" as="geometry"/>
                </mxCell>
                <mxCell id="mSTFbyO6T9UbL1waG1NC-119" value="" style="edgeStyle=orthogonalEdgeStyle;rounded=0;orthogonalLoop=1;jettySize=auto;html=1;fontSize=10;startArrow=none;startFill=0;endArrow=none;endFill=0;strokeColor=default;shape=link;exitX=0.423;exitY=0.024;exitDx=0;exitDy=0;exitPerimeter=0;entryX=0.5;entryY=1;entryDx=0;entryDy=0;" parent="1" source="mSTFbyO6T9UbL1waG1NC-112" target="mSTFbyO6T9UbL1waG1NC-118" edge="1">
                    <mxGeometry x="0.2381" y="-10" relative="1" as="geometry">
                        <mxPoint x="214" y="680" as="targetPoint"/>
                        <Array as="points">
                            <mxPoint x="214" y="680"/>
                        </Array>
                        <mxPoint as="offset"/>
                    </mxGeometry>
                </mxCell>
                <mxCell id="mSTFbyO6T9UbL1waG1NC-121" value="1:1" style="edgeLabel;html=1;align=center;verticalAlign=middle;resizable=0;points=[];fontSize=10;" parent="mSTFbyO6T9UbL1waG1NC-119" vertex="1" connectable="0">
                    <mxGeometry x="-0.0677" y="-2" relative="1" as="geometry">
                        <mxPoint as="offset"/>
                    </mxGeometry>
                </mxCell>
                <mxCell id="mSTFbyO6T9UbL1waG1NC-125" style="edgeStyle=orthogonalEdgeStyle;rounded=0;orthogonalLoop=1;jettySize=auto;html=1;fontSize=10;startArrow=none;startFill=0;endArrow=none;endFill=0;strokeColor=default;" parent="1" source="mSTFbyO6T9UbL1waG1NC-112" target="mSTFbyO6T9UbL1waG1NC-124" edge="1">
                    <mxGeometry relative="1" as="geometry"/>
                </mxCell>
                <mxCell id="mSTFbyO6T9UbL1waG1NC-112" value="Función" style="swimlane;childLayout=stackLayout;horizontal=1;startSize=30;horizontalStack=0;rounded=1;fontSize=14;fontStyle=0;strokeWidth=2;resizeParent=0;resizeLast=1;shadow=0;dashed=1;align=center;labelBackgroundColor=none;labelBorderColor=none;fillColor=#dae8fc;strokeColor=#6c8ebf;" parent="1" vertex="1" collapsed="1">
                    <mxGeometry x="190" y="850" width="80" height="30" as="geometry">
                        <mxRectangle x="110" y="830" width="160" height="120" as="alternateBounds"/>
                    </mxGeometry>
                </mxCell>
                <mxCell id="mSTFbyO6T9UbL1waG1NC-114" value="- Sala.id&#10;- fecha&#10;- hora" style="align=left;strokeColor=none;fillColor=none;spacingLeft=4;fontSize=12;verticalAlign=top;resizable=0;rotatable=0;part=1;labelBackgroundColor=none;labelBorderColor=none;" parent="mSTFbyO6T9UbL1waG1NC-112" vertex="1">
                    <mxGeometry y="30" width="80" as="geometry"/>
                </mxCell>
                <mxCell id="mSTFbyO6T9UbL1waG1NC-116" value="Sala" style="swimlane;childLayout=stackLayout;horizontal=1;startSize=30;horizontalStack=0;rounded=1;fontSize=14;fontStyle=0;strokeWidth=2;resizeParent=0;resizeLast=1;shadow=0;dashed=0;align=center;fillColor=#dae8fc;strokeColor=#6c8ebf;" parent="1" vertex="1" collapsed="1">
                    <mxGeometry x="395" y="640" width="80" height="30" as="geometry">
                        <mxRectangle x="240" y="690" width="160" height="120" as="alternateBounds"/>
                    </mxGeometry>
                </mxCell>
                <mxCell id="mSTFbyO6T9UbL1waG1NC-117" value="- id&#10;+ Sede.id&#10;+ numero_sala&#10;+ n_butacas" style="align=left;strokeColor=none;fillColor=none;spacingLeft=4;fontSize=12;verticalAlign=top;resizable=0;rotatable=0;part=1;" parent="mSTFbyO6T9UbL1waG1NC-116" vertex="1">
                    <mxGeometry y="30" width="80" as="geometry"/>
                </mxCell>
                <mxCell id="mSTFbyO6T9UbL1waG1NC-120" style="edgeStyle=orthogonalEdgeStyle;rounded=0;orthogonalLoop=1;jettySize=auto;html=1;fontSize=10;startArrow=none;startFill=0;endArrow=none;endFill=0;strokeColor=default;" parent="1" source="mSTFbyO6T9UbL1waG1NC-118" target="mSTFbyO6T9UbL1waG1NC-116" edge="1">
                    <mxGeometry relative="1" as="geometry"/>
                </mxCell>
                <mxCell id="mSTFbyO6T9UbL1waG1NC-118" value="se realiza en" style="shape=rhombus;perimeter=rhombusPerimeter;whiteSpace=wrap;html=1;align=center;fillColor=#f8cecc;strokeColor=#b85450;" parent="1" vertex="1">
                    <mxGeometry x="170" y="630" width="100" height="50" as="geometry"/>
                </mxCell>
                <mxCell id="mSTFbyO6T9UbL1waG1NC-122" value="ButacaFunción" style="swimlane;childLayout=stackLayout;horizontal=1;startSize=30;horizontalStack=0;rounded=1;fontSize=14;fontStyle=0;strokeWidth=2;resizeParent=0;resizeLast=1;shadow=0;dashed=0;align=center;fillColor=#dae8fc;strokeColor=#6c8ebf;" parent="1" vertex="1" collapsed="1">
                    <mxGeometry x="500" y="850" width="130" height="30" as="geometry">
                        <mxRectangle x="510" y="640" width="160" height="140" as="alternateBounds"/>
                    </mxGeometry>
                </mxCell>
                <mxCell id="mSTFbyO6T9UbL1waG1NC-123" value="- funcion_id&#10;- funcion_fecha&#10;- funcio_hora&#10;+ nro_fila&#10;+ nro_columna&#10;+ VentaEntrada.id" style="align=left;strokeColor=none;fillColor=none;spacingLeft=4;fontSize=12;verticalAlign=top;resizable=0;rotatable=0;part=1;" parent="mSTFbyO6T9UbL1waG1NC-122" vertex="1">
                    <mxGeometry y="30" width="130" as="geometry"/>
                </mxCell>
                <mxCell id="mSTFbyO6T9UbL1waG1NC-126" style="edgeStyle=orthogonalEdgeStyle;shape=link;rounded=0;orthogonalLoop=1;jettySize=auto;html=1;entryX=0;entryY=0.5;entryDx=0;entryDy=0;fontSize=10;startArrow=none;startFill=0;endArrow=none;endFill=0;strokeColor=default;" parent="1" source="mSTFbyO6T9UbL1waG1NC-124" target="mSTFbyO6T9UbL1waG1NC-122" edge="1">
                    <mxGeometry relative="1" as="geometry"/>
                </mxCell>
                <mxCell id="mSTFbyO6T9UbL1waG1NC-127" value="1:1" style="edgeLabel;html=1;align=center;verticalAlign=middle;resizable=0;points=[];fontSize=10;" parent="mSTFbyO6T9UbL1waG1NC-126" vertex="1" connectable="0">
                    <mxGeometry x="-0.3625" relative="1" as="geometry">
                        <mxPoint as="offset"/>
                    </mxGeometry>
                </mxCell>
                <mxCell id="mSTFbyO6T9UbL1waG1NC-124" value="se reseva en" style="shape=rhombus;perimeter=rhombusPerimeter;whiteSpace=wrap;html=1;align=center;fillColor=#f8cecc;strokeColor=#b85450;" parent="1" vertex="1">
                    <mxGeometry x="340" y="840" width="100" height="50" as="geometry"/>
                </mxCell>
                <mxCell id="mSTFbyO6T9UbL1waG1NC-132" value="" style="rounded=0;whiteSpace=wrap;html=1;labelBackgroundColor=none;labelBorderColor=none;fontSize=10;strokeWidth=3;fillColor=none;align=center;verticalAlign=middle;" parent="1" vertex="1">
                    <mxGeometry x="1787" y="540" width="675" height="480" as="geometry"/>
                </mxCell>
                <mxCell id="mSTFbyO6T9UbL1waG1NC-133" value="&lt;span style=&quot;font-size: 17px&quot;&gt;&lt;b&gt;Administradores&lt;/b&gt;&lt;/span&gt;" style="text;html=1;strokeColor=none;fillColor=none;align=center;verticalAlign=middle;whiteSpace=wrap;rounded=0;labelBackgroundColor=none;labelBorderColor=none;fontSize=11;" parent="1" vertex="1">
                    <mxGeometry x="1860" y="560" width="60" height="30" as="geometry"/>
                </mxCell>
                <mxCell id="mSTFbyO6T9UbL1waG1NC-134" value="" style="rounded=0;whiteSpace=wrap;html=1;labelBackgroundColor=none;labelBorderColor=none;fontSize=10;strokeWidth=3;fillColor=none;align=center;verticalAlign=middle;" parent="1" vertex="1">
                    <mxGeometry x="1787" y="1060" width="675" height="480" as="geometry"/>
                </mxCell>
                <mxCell id="mSTFbyO6T9UbL1waG1NC-135" value="&lt;span style=&quot;font-size: 17px&quot;&gt;&lt;b&gt;Locales&lt;/b&gt;&lt;/span&gt;" style="text;html=1;strokeColor=none;fillColor=none;align=center;verticalAlign=middle;whiteSpace=wrap;rounded=0;labelBackgroundColor=none;labelBorderColor=none;fontSize=11;" parent="1" vertex="1">
                    <mxGeometry x="1860" y="1080" width="60" height="30" as="geometry"/>
                </mxCell>
                <mxCell id="mSTFbyO6T9UbL1waG1NC-136" value="" style="rounded=0;whiteSpace=wrap;html=1;labelBackgroundColor=none;labelBorderColor=none;fontSize=10;strokeWidth=3;fillColor=none;align=center;verticalAlign=middle;" parent="1" vertex="1">
                    <mxGeometry x="1070" y="1600" width="675" height="480" as="geometry"/>
                </mxCell>
                <mxCell id="mSTFbyO6T9UbL1waG1NC-137" value="&lt;span style=&quot;font-size: 17px&quot;&gt;&lt;b&gt;Productos&lt;/b&gt;&lt;/span&gt;" style="text;html=1;strokeColor=none;fillColor=none;align=center;verticalAlign=middle;whiteSpace=wrap;rounded=0;labelBackgroundColor=none;labelBorderColor=none;fontSize=11;" parent="1" vertex="1">
                    <mxGeometry x="1120" y="1620" width="60" height="30" as="geometry"/>
                </mxCell>
                <mxCell id="mSTFbyO6T9UbL1waG1NC-138" value="" style="rounded=0;whiteSpace=wrap;html=1;labelBackgroundColor=none;labelBorderColor=none;fontSize=10;strokeWidth=3;fillColor=none;align=center;verticalAlign=middle;" parent="1" vertex="1">
                    <mxGeometry x="1820" y="1600" width="675" height="480" as="geometry"/>
                </mxCell>
                <mxCell id="mSTFbyO6T9UbL1waG1NC-139" value="&lt;span style=&quot;font-size: 17px&quot;&gt;&lt;b&gt;Ventas&lt;/b&gt;&lt;/span&gt;" style="text;html=1;strokeColor=none;fillColor=none;align=center;verticalAlign=middle;whiteSpace=wrap;rounded=0;labelBackgroundColor=none;labelBorderColor=none;fontSize=11;" parent="1" vertex="1">
                    <mxGeometry x="1870" y="1620" width="60" height="30" as="geometry"/>
                </mxCell>
                <mxCell id="mSTFbyO6T9UbL1waG1NC-140" value="" style="group;movable=0;resizable=0;rotatable=0;deletable=0;editable=0;connectable=0;" parent="1" vertex="1" connectable="0">
                    <mxGeometry x="1025" y="540" width="675" height="480" as="geometry"/>
                </mxCell>
                <mxCell id="mSTFbyO6T9UbL1waG1NC-128" value="" style="rounded=0;whiteSpace=wrap;html=1;labelBackgroundColor=none;labelBorderColor=none;fontSize=10;strokeWidth=3;fillColor=none;align=center;verticalAlign=middle;movable=0;resizable=0;rotatable=0;deletable=0;editable=0;connectable=0;" parent="mSTFbyO6T9UbL1waG1NC-140" vertex="1">
                    <mxGeometry width="675" height="480" as="geometry"/>
                </mxCell>
                <mxCell id="mSTFbyO6T9UbL1waG1NC-129" value="&lt;span style=&quot;font-size: 17px&quot;&gt;&lt;b&gt;Clientes&lt;/b&gt;&lt;/span&gt;" style="text;html=1;strokeColor=none;fillColor=none;align=center;verticalAlign=middle;whiteSpace=wrap;rounded=0;labelBackgroundColor=none;labelBorderColor=none;fontSize=11;movable=1;resizable=1;rotatable=1;deletable=1;editable=1;connectable=1;" parent="mSTFbyO6T9UbL1waG1NC-140" vertex="1">
                    <mxGeometry x="40" y="10" width="60" height="30" as="geometry"/>
                </mxCell>
                <mxCell id="mSTFbyO6T9UbL1waG1NC-78" value="Clientes Vacunados" style="swimlane;childLayout=stackLayout;horizontal=1;startSize=30;horizontalStack=0;rounded=1;fontSize=14;fontStyle=0;strokeWidth=3;resizeParent=0;resizeLast=1;shadow=0;dashed=1;align=center;fillColor=#dae8fc;strokeColor=#6c8ebf;labelBorderColor=none;labelBackgroundColor=none;" parent="mSTFbyO6T9UbL1waG1NC-140" vertex="1" collapsed="1">
                    <mxGeometry x="415" y="430" width="150" height="30" as="geometry">
                        <mxRectangle x="65" y="80" width="160" height="120" as="alternateBounds"/>
                    </mxGeometry>
                </mxCell>
                <mxCell id="mSTFbyO6T9UbL1waG1NC-79" value="+ qr_carnet" style="align=left;strokeColor=none;fillColor=none;spacingLeft=4;fontSize=12;verticalAlign=top;resizable=0;rotatable=0;part=1;" parent="mSTFbyO6T9UbL1waG1NC-78" vertex="1">
                    <mxGeometry y="30" width="150" height="90" as="geometry"/>
                </mxCell>
                <mxCell id="mSTFbyO6T9UbL1waG1NC-81" value="+ qr_carnet" style="align=left;strokeColor=none;fillColor=none;spacingLeft=4;fontSize=12;verticalAlign=top;resizable=0;rotatable=0;part=1;" parent="mSTFbyO6T9UbL1waG1NC-78" vertex="1">
                    <mxGeometry y="120" width="150" height="-90" as="geometry"/>
                </mxCell>
                <mxCell id="mSTFbyO6T9UbL1waG1NC-187" style="edgeStyle=orthogonalEdgeStyle;rounded=0;orthogonalLoop=1;jettySize=auto;html=1;fontSize=10;startArrow=none;startFill=0;endArrow=classic;endFill=1;strokeColor=default;" parent="mSTFbyO6T9UbL1waG1NC-140" source="mSTFbyO6T9UbL1waG1NC-141" target="mSTFbyO6T9UbL1waG1NC-150" edge="1">
                    <mxGeometry relative="1" as="geometry"/>
                </mxCell>
                <mxCell id="mSTFbyO6T9UbL1waG1NC-141" value="Clientes" style="swimlane;childLayout=stackLayout;horizontal=1;startSize=30;horizontalStack=0;rounded=1;fontSize=14;fontStyle=0;strokeWidth=3;resizeParent=0;resizeLast=1;shadow=0;align=center;fillColor=#dae8fc;strokeColor=#6c8ebf;labelBorderColor=none;labelBackgroundColor=none;" parent="mSTFbyO6T9UbL1waG1NC-140" vertex="1" collapsed="1">
                    <mxGeometry x="250" y="260" width="150" height="30" as="geometry">
                        <mxRectangle x="65" y="170" width="160" height="120" as="alternateBounds"/>
                    </mxGeometry>
                </mxCell>
                <mxCell id="mSTFbyO6T9UbL1waG1NC-142" value="- id&#10;+ nombres&#10;+ apellidos&#10;+ correo&#10;+ celular" style="align=left;strokeColor=none;fillColor=none;spacingLeft=4;fontSize=12;verticalAlign=top;resizable=0;rotatable=0;part=1;" parent="mSTFbyO6T9UbL1waG1NC-141" vertex="1">
                    <mxGeometry y="30" width="150" as="geometry"/>
                </mxCell>
                <mxCell id="mSTFbyO6T9UbL1waG1NC-185" value="1:1" style="edgeStyle=orthogonalEdgeStyle;rounded=0;orthogonalLoop=1;jettySize=auto;html=1;fontSize=10;startArrow=none;startFill=0;endArrow=none;endFill=0;strokeColor=default;shape=link;" parent="mSTFbyO6T9UbL1waG1NC-140" source="mSTFbyO6T9UbL1waG1NC-144" target="mSTFbyO6T9UbL1waG1NC-153" edge="1">
                    <mxGeometry relative="1" as="geometry"/>
                </mxCell>
                <mxCell id="mSTFbyO6T9UbL1waG1NC-144" value="CuentaBancaria" style="swimlane;childLayout=stackLayout;horizontal=1;startSize=30;horizontalStack=0;rounded=1;fontSize=14;fontStyle=0;strokeWidth=3;resizeParent=0;resizeLast=1;shadow=0;align=center;fillColor=#dae8fc;strokeColor=#6c8ebf;labelBorderColor=none;labelBackgroundColor=none;dashed=1;" parent="mSTFbyO6T9UbL1waG1NC-140" vertex="1" collapsed="1">
                    <mxGeometry x="122.5" y="420" width="150" height="30" as="geometry">
                        <mxRectangle x="295" y="230" width="160" height="120" as="alternateBounds"/>
                    </mxGeometry>
                </mxCell>
                <mxCell id="mSTFbyO6T9UbL1waG1NC-145" value="- Cliente.id&#10;+ numero_cuenta&#10;+ tipo_cuenta&#10;+ tipo_tarjeta" style="align=left;strokeColor=none;fillColor=none;spacingLeft=4;fontSize=12;verticalAlign=top;resizable=0;rotatable=0;part=1;" parent="mSTFbyO6T9UbL1waG1NC-144" vertex="1">
                    <mxGeometry y="30" width="150" as="geometry"/>
                </mxCell>
                <mxCell id="mSTFbyO6T9UbL1waG1NC-146" value="Membresía" style="swimlane;childLayout=stackLayout;horizontal=1;startSize=30;horizontalStack=0;rounded=1;fontSize=14;fontStyle=0;strokeWidth=3;resizeParent=0;resizeLast=1;shadow=0;align=center;fillColor=#dae8fc;strokeColor=#6c8ebf;labelBorderColor=none;labelBackgroundColor=none;" parent="mSTFbyO6T9UbL1waG1NC-140" vertex="1" collapsed="1">
                    <mxGeometry x="250" y="40" width="150" height="30" as="geometry">
                        <mxRectangle x="250" y="50" width="160" height="120" as="alternateBounds"/>
                    </mxGeometry>
                </mxCell>
                <mxCell id="mSTFbyO6T9UbL1waG1NC-147" value="- id&#10;+ nombre" style="align=left;strokeColor=none;fillColor=none;spacingLeft=4;fontSize=12;verticalAlign=top;resizable=0;rotatable=0;part=1;" parent="mSTFbyO6T9UbL1waG1NC-146" vertex="1">
                    <mxGeometry y="30" width="150" as="geometry"/>
                </mxCell>
                <mxCell id="mSTFbyO6T9UbL1waG1NC-188" style="edgeStyle=orthogonalEdgeStyle;rounded=0;orthogonalLoop=1;jettySize=auto;html=1;entryX=0.5;entryY=1;entryDx=0;entryDy=0;fontSize=10;startArrow=none;startFill=0;endArrow=none;endFill=0;strokeColor=default;" parent="mSTFbyO6T9UbL1waG1NC-140" source="mSTFbyO6T9UbL1waG1NC-150" target="mSTFbyO6T9UbL1waG1NC-146" edge="1">
                    <mxGeometry relative="1" as="geometry"/>
                </mxCell>
                <mxCell id="mSTFbyO6T9UbL1waG1NC-150" value="Socios" style="shape=rhombus;perimeter=rhombusPerimeter;whiteSpace=wrap;html=1;align=center;fillColor=#f8cecc;strokeColor=#b85450;" parent="mSTFbyO6T9UbL1waG1NC-140" vertex="1">
                    <mxGeometry x="265" y="140" width="120" height="60" as="geometry"/>
                </mxCell>
                <mxCell id="mSTFbyO6T9UbL1waG1NC-186" style="edgeStyle=orthogonalEdgeStyle;rounded=0;orthogonalLoop=1;jettySize=auto;html=1;entryX=0;entryY=0.5;entryDx=0;entryDy=0;fontSize=10;startArrow=none;startFill=0;endArrow=none;endFill=0;strokeColor=default;" parent="mSTFbyO6T9UbL1waG1NC-140" source="mSTFbyO6T9UbL1waG1NC-153" target="mSTFbyO6T9UbL1waG1NC-141" edge="1">
                    <mxGeometry relative="1" as="geometry"/>
                </mxCell>
                <mxCell id="mSTFbyO6T9UbL1waG1NC-153" value="tiene" style="shape=rhombus;perimeter=rhombusPerimeter;whiteSpace=wrap;html=1;align=center;fillColor=#f8cecc;strokeColor=#b85450;" parent="mSTFbyO6T9UbL1waG1NC-140" vertex="1">
                    <mxGeometry x="140" y="310" width="115" height="60" as="geometry"/>
                </mxCell>
                <mxCell id="mSTFbyO6T9UbL1waG1NC-184" style="edgeStyle=orthogonalEdgeStyle;rounded=0;orthogonalLoop=1;jettySize=auto;html=1;entryX=1;entryY=0.25;entryDx=0;entryDy=0;fontSize=10;startArrow=none;startFill=0;endArrow=none;endFill=0;strokeColor=default;" parent="mSTFbyO6T9UbL1waG1NC-140" source="mSTFbyO6T9UbL1waG1NC-182" target="mSTFbyO6T9UbL1waG1NC-141" edge="1">
                    <mxGeometry relative="1" as="geometry">
                        <Array as="points">
                            <mxPoint x="490" y="268"/>
                            <mxPoint x="420" y="268"/>
                        </Array>
                    </mxGeometry>
                </mxCell>
                <mxCell id="mSTFbyO6T9UbL1waG1NC-182" value="Son" style="shape=rhombus;perimeter=rhombusPerimeter;whiteSpace=wrap;html=1;align=center;fillColor=#f8cecc;strokeColor=#b85450;" parent="mSTFbyO6T9UbL1waG1NC-140" vertex="1">
                    <mxGeometry x="432.5" y="300" width="115" height="60" as="geometry"/>
                </mxCell>
                <mxCell id="mSTFbyO6T9UbL1waG1NC-183" value="1:1" style="edgeStyle=orthogonalEdgeStyle;rounded=0;orthogonalLoop=1;jettySize=auto;html=1;fontSize=10;startArrow=none;startFill=0;endArrow=none;endFill=0;strokeColor=default;shape=link;" parent="1" source="mSTFbyO6T9UbL1waG1NC-78" edge="1">
                    <mxGeometry relative="1" as="geometry">
                        <mxPoint x="1515" y="900" as="targetPoint"/>
                    </mxGeometry>
                </mxCell>
                <mxCell id="mSTFbyO6T9UbL1waG1NC-189" value="" style="group" parent="1" vertex="1" connectable="0">
                    <mxGeometry x="1025" y="1050" width="675" height="480" as="geometry"/>
                </mxCell>
                <mxCell id="mSTFbyO6T9UbL1waG1NC-130" value="" style="rounded=0;whiteSpace=wrap;html=1;labelBackgroundColor=none;labelBorderColor=none;fontSize=10;strokeWidth=3;fillColor=none;align=center;verticalAlign=middle;" parent="mSTFbyO6T9UbL1waG1NC-189" vertex="1">
                    <mxGeometry width="675" height="480" as="geometry"/>
                </mxCell>
                <mxCell id="mSTFbyO6T9UbL1waG1NC-131" value="&lt;span style=&quot;font-size: 17px&quot;&gt;&lt;b&gt;Colaboradores&lt;/b&gt;&lt;/span&gt;" style="text;html=1;strokeColor=none;fillColor=none;align=center;verticalAlign=middle;whiteSpace=wrap;rounded=0;labelBackgroundColor=none;labelBorderColor=none;fontSize=11;" parent="mSTFbyO6T9UbL1waG1NC-189" vertex="1">
                    <mxGeometry x="50" y="20" width="60" height="30" as="geometry"/>
                </mxCell>
                <mxCell id="2sgthdCqXpQREnMHKzpx-1" value="Sede" style="swimlane;childLayout=stackLayout;horizontal=1;startSize=30;horizontalStack=0;rounded=1;fontSize=14;fontStyle=0;strokeWidth=2;resizeParent=0;resizeLast=1;shadow=0;dashed=0;align=center;fillColor=#dae8fc;strokeColor=#6c8ebf;" parent="1" vertex="1" collapsed="1">
                    <mxGeometry x="2070" y="1280" width="110" height="30" as="geometry">
                        <mxRectangle x="2070" y="1280" width="160" height="140" as="alternateBounds"/>
                    </mxGeometry>
                </mxCell>
                <mxCell id="2sgthdCqXpQREnMHKzpx-2" value="- id&#10;+ nombre&#10;+ direccion&#10;+ departamento&#10;+ distrito&#10;+ n_salas" style="align=left;strokeColor=none;fillColor=none;spacingLeft=4;fontSize=12;verticalAlign=top;resizable=0;rotatable=0;part=1;" parent="2sgthdCqXpQREnMHKzpx-1" vertex="1">
                    <mxGeometry y="30" width="110" as="geometry"/>
                </mxCell>
            </root>
        </mxGraphModel>
    </diagram>
</mxfile>